<?xml version="1.0" standalone="no"?>
<!DOCTYPE svg PUBLIC "-//W3C//DTD SVG 20010904//EN"
 "http://www.w3.org/TR/2001/REC-SVG-20010904/DTD/svg10.dtd">
<svg version="1.0" xmlns="http://www.w3.org/2000/svg"
 width="512.000000pt" height="512.000000pt" viewBox="0 0 512.000000 512.000000"
 preserveAspectRatio="xMidYMid meet">

<g transform="translate(0.000000,512.000000) scale(0.100000,-0.100000)"
fill="#000000" stroke="none">
<path d="M17 5102 c-16 -17 -17 -208 -17 -2544 0 -2433 1 -2526 18 -2541 17
-16 208 -17 2544 -17 2433 0 2526 1 2541 18 16 17 17 208 17 2544 0 2433 -1
2526 -18 2541 -17 16 -208 17 -2544 17 -2433 0 -2526 -1 -2541 -18z m4993
-2542 l0 -2450 -2450 0 -2450 0 0 2450 0 2450 2450 0 2450 0 0 -2450z"/>
<path d="M326 4884 c-14 -14 -16 -238 -16 -2314 0 -2263 0 -2299 19 -2310 13
-7 368 -10 1080 -10 950 0 1061 2 1075 16 14 14 16 237 16 2309 0 2072 -2
2295 -16 2309 -14 14 -125 16 -1079 16 -954 0 -1065 -2 -1079 -16z m2064 -229
l0 -135 -985 0 -985 0 0 135 0 135 985 0 985 0 0 -135z m0 -400 l0 -155 -985
0 -985 0 0 155 0 155 985 0 985 0 0 -155z m0 -425 l0 -160 -985 0 -985 0 0
160 0 160 985 0 985 0 0 -160z m0 -400 l0 -130 -985 0 -985 0 0 130 0 130 985
0 985 0 0 -130z m-1710 -981 l0 -741 -70 -137 c-38 -75 -70 -146 -70 -158 0
-45 31 -53 205 -53 88 0 165 4 171 8 6 4 16 17 23 30 11 21 4 38 -68 172 l-81
149 2 733 3 733 798 3 797 2 0 -1415 0 -1415 -985 0 -985 0 0 1415 0 1415 130
0 130 0 0 -741z m90 -929 c11 -22 20 -42 20 -45 0 -3 -22 -5 -50 -5 -27 0 -50
2 -50 5 0 16 45 93 52 89 5 -3 17 -23 28 -44z"/>
<path d="M2647 4882 c-16 -17 -17 -192 -17 -2309 0 -2208 1 -2290 18 -2306 17
-16 104 -17 1088 -15 l1068 3 13 25 c10 20 12 480 10 2308 -2 2248 -2 2284
-21 2298 -17 12 -180 14 -1081 14 -1016 0 -1063 -1 -1078 -18z m2063 -2307 l0
-2215 -985 0 -985 0 0 990 0 990 298 0 c253 0 301 2 320 16 21 15 22 21 22
169 0 126 -3 156 -16 169 -13 14 -56 16 -320 16 l-304 0 0 1040 0 1040 985 0
985 0 0 -2215z m-1440 -50 l0 -75 -265 0 -265 0 0 75 0 75 265 0 265 0 0 -75z"/>
</g>
</svg>
